<svg xmlns="http://www.w3.org/2000/svg" width="211.531" height="141.839" viewBox="0 0 211.531 141.839"><circle cx="10.997" cy="10.997" r="10.997" transform="translate(25.533 6.701)" fill="#ff6584"/><path d="M231.559,120c0,25.949-15.426,35.009-34.455,35.009S162.649,145.95,162.649,120,197.1,61.042,197.1,61.042,231.559,94.053,231.559,120Z" transform="translate(-141.523 -61.042)" fill="#f2f2f2"/><path d="M249.413,96.248l.353-23.225,14.686-28.732L249.821,69.38l.159-10.443L260.1,38.15,250.022,56.174h0l.285-18.782,10.838-16.549-10.793,13.6L250.53,0l-1.12,45.591.092-1.881L238.483,25.672l10.842,21.648L248.3,68.3l-.031-.557-12.7-18.982L248.23,69.707,248.1,72.33l-.023.04.01.215-2.6,53.218h3.48l.418-27.488,12.633-20.9Z" transform="translate(-190.394)" fill="#3f3d56"/><path d="M888.442,233.413c0,21.24-12.627,28.657-28.2,28.657s-28.2-7.416-28.2-28.657,28.2-48.261,28.2-48.261S888.442,212.173,888.442,233.413Z" transform="translate(-676.91 -160.757)" fill="#f2f2f2"/><path d="M895.849,197.779,896.138,180l12.021-21.992-11.976,19.2.13-7.993L904.6,153.31l-8.251,13.8h0l.234-14.376,8.872-12.667-8.835,10.407.146-26.36-.917,34.9.075-1.439L886.9,143.76l8.875,16.57-.841,16.055-.025-.426-10.4-14.529,10.367,16.034-.105,2.008-.019.03.009.165L892.633,220.4h2.849l.342-21.039,10.341-16Z" transform="translate(-713.549 -94.616)" fill="#3f3d56"/><ellipse cx="104.785" cy="4.817" rx="104.785" ry="4.817" transform="translate(0 120.279)" fill="#3f3d56"/><ellipse cx="16.322" cy="0.825" rx="16.322" ry="0.825" transform="translate(156.006 132.23)" fill="#3f3d56"/><ellipse cx="16.322" cy="0.825" rx="16.322" ry="0.825" transform="translate(87.218 140.189)" fill="#3f3d56"/><ellipse cx="37.29" cy="1.885" rx="37.29" ry="1.885" transform="translate(12.188 132.456)" fill="#3f3d56"/><g transform="translate(5.757 77.484)"><circle cx="13.575" cy="13.575" r="13.575" transform="translate(0 11.781)" fill="#2f2e41"/><rect width="4.124" height="7.389" transform="translate(7.264 37.684) rotate(0.675)" fill="#2f2e41"/><rect width="4.124" height="7.389" transform="translate(15.511 37.781) rotate(0.675)" fill="#2f2e41"/><ellipse cx="1.289" cy="3.437" rx="1.289" ry="3.437" transform="translate(7.16 46.446) rotate(-89.325)" fill="#2f2e41"/><ellipse cx="1.289" cy="3.437" rx="1.289" ry="3.437" transform="translate(15.41 46.372) rotate(-89.325)" fill="#2f2e41"/><circle cx="4.639" cy="4.639" r="4.639" transform="translate(9.319 16.723)" fill="#fff"/><circle cx="1.546" cy="1.546" r="1.546" transform="translate(12.412 19.732)" fill="#3f3d56"/><path d="M60.159,498.839c-1.038-4.921,2.524-9.84,7.956-10.986s10.677,1.915,11.716,6.836-2.574,6.689-8.006,7.835S61.2,503.761,60.159,498.839Z" transform="translate(-59.603 -487.613)" fill="#297aff"/><path d="M136.168,567.747c0,9.464-5.626,12.768-12.566,12.768q-.241,0-.482-.005c-.322-.007-.64-.022-.955-.044-6.264-.443-11.13-3.917-11.13-12.719,0-9.109,11.64-20.6,12.514-21.453h0l.051-.049S136.168,558.283,136.168,567.747Z" transform="translate(-101.886 -533.07)" fill="#345dfd"/><ellipse cx="2.131" cy="6.787" rx="2.131" ry="6.787" transform="translate(2.312 28.956) rotate(-68.159)" fill="#2f2e41"/><path d="M157.159,579.068l4.6-6.422-4.607,7.127-.012.737c-.322-.007-.64-.022-.955-.044l.5-9.469,0-.073.008-.014.047-.894-4.619-7.145,4.634,6.474.011.19.374-7.154L153.172,555l4,6.127.39-14.832,0-.051v.049l-.065,11.7,3.937-4.637L157.485,559l-.1,6.405,3.676-6.147-3.691,7.09-.058,3.561,5.336-8.556-5.356,9.8Z" transform="translate(-135.901 -533.07)" fill="#3f3d56"/></g><g transform="translate(8)"><circle cx="13.575" cy="13.575" r="13.575" transform="translate(121.342 89.991)" fill="#2f2e41"/><rect width="4.124" height="7.389" transform="matrix(0.956, -0.294, 0.294, 0.956, 131.822, 117.326)" fill="#2f2e41"/><rect width="4.124" height="7.389" transform="matrix(0.956, -0.294, 0.294, 0.956, 140.509, 114.903)" fill="#2f2e41"/><ellipse cx="3.437" cy="1.289" rx="3.437" ry="1.289" transform="matrix(0.956, -0.294, 0.294, 0.956, 133.906, 123.239)" fill="#2f2e41"/><ellipse cx="3.437" cy="1.289" rx="3.437" ry="1.289" transform="matrix(0.956, -0.294, 0.294, 0.956, 142.542, 120.652)" fill="#2f2e41"/><circle cx="4.639" cy="4.639" r="4.639" transform="translate(129.233 94.984)" fill="#fff"/><circle cx="1.546" cy="1.546" r="1.546" transform="translate(132.24 97.993)" fill="#3f3d56"/><path d="M652.068,509.7c-2.49-4.37-.6-10.141,4.226-12.889s10.753-1.433,13.242,2.937-.411,7.156-5.235,9.9S654.558,514.073,652.068,509.7Z" transform="translate(-534.419 -415.52)" fill="#297aff"/><ellipse cx="2.131" cy="6.787" rx="2.131" ry="6.787" transform="translate(121.821 107.815) rotate(-64.626)" fill="#2f2e41"/><path d="M754.168,578.747c0,9.464-5.626,12.768-12.566,12.768q-.241,0-.482-.005c-.321-.007-.64-.022-.955-.044-6.264-.443-11.13-3.918-11.13-12.719,0-9.109,11.64-20.6,12.514-21.453l0,0,.051-.049S754.168,569.283,754.168,578.747Z" transform="translate(-597.16 -463.813)" fill="#297aff"/><path d="M775.159,590.068l4.6-6.422-4.607,7.127-.012.737c-.322-.007-.64-.022-.955-.044l.5-9.468,0-.074.008-.014.047-.894-4.619-7.145,4.633,6.474.011.19.374-7.154L771.172,566l4,6.127.39-14.832v0l-.065,11.7,3.937-4.637L775.485,570l-.1,6.405,3.676-6.147-3.691,7.09-.058,3.561,5.336-8.556-5.356,9.8Z" transform="translate(-631.516 -463.813)" fill="#3f3d56"/></g><g transform="translate(82.084 81.823)"><path d="M562.36,618.414l1.07,3.313a17.15,17.15,0,0,0-.51,6.576c.459,3.466.2,3.568.2,3.568s-4.584-.264-4.125,1.113,4.941.57,4.941.57.861-.232,1.269-2.679,1.433-7.16,1.433-7.16l-.964-4.449Z" transform="translate(-558.967 -599.006)" fill="#ffb8b8"/><path d="M576.374,560.545a3.015,3.015,0,0,0-1.937,2.651c0,1.937.714,4.588,1.173,4.741s3.518,2.243,4.078.765S576.374,560.545,576.374,560.545Z" transform="translate(-572.625 -547.917)" fill="#297aff"/><path d="M638.972,693.935l4.078-.153,3.109-.459-.917,3.059-7.545.2Z" transform="translate(-619.012 -658.367)" fill="#ffb8b8"/><path d="M773.8,743.3s-.051-1.122-.51-1.071-.153-.408.255-.51,1.58-.612,1.58-.612l4.639.306s3.008,2.651,1.784,4.078-4.384.153-4.384.153l-3.416.051S772.629,743.865,773.8,743.3Z" transform="translate(-747.979 -707.329)" fill="#2f2e41"/><path d="M714.276,643.553l1.478,6.933,3.059-.612-1.733-8.666-1.835-.969Z" transform="translate(-686.618 -611.503)" fill="#ffb8b8"/><path d="M600.943,612.593s-8.564,3.874-4.945,7.8c0,0,0,1.835,3.823,1.478s11.215-1.019,11.572-.815,1.479-4.027.51-4.231-2.141-.459-2.141-.459,1.02-.153,1.02-1.019c0,0,2.906-.2,3.772-2.039s1.682-3.212,1.682-3.212l1.988,5.1s2.294-4.231,4.027-2.345c0,0-1.937-12.184-3.416-13.305s-2.5-1.478-3.874-.459a12.329,12.329,0,0,0-2.651,3.619Z" transform="translate(-590.872 -581.409)" fill="#2f2e41"/><path d="M794.487,767.247a11.511,11.511,0,0,0-1.019.866c-.408.408-.969.2-1.02,0s-.969.153-1.07,1.631-.714,2.8.917,3.263a1.9,1.9,0,0,1,1.58,1.784,5.5,5.5,0,0,0,4.129.255c2.294-.765,1.478-1.58,1.478-1.58l-3.059-5.047S795.608,766.89,794.487,767.247Z" transform="translate(-763.974 -730.354)" fill="#2f2e41"/><path d="M733.729,551.843s4.894,1.682,5.4,2.039,2.8,2.039,1.682,2.906a3.9,3.9,0,0,1-4.231.764,16.471,16.471,0,0,1-4.639-2.7Z" transform="translate(-711.678 -540.235)" fill="#ffb8b8"/><path d="M705.4,532.072a5.749,5.749,0,0,1,3.314.408,9.954,9.954,0,0,1,2.549,2.294s-1.274,2.7-2.192,3.11-2.6-1.631-2.6-1.631Z" transform="translate(-688.246 -522.707)" fill="#297aff"/><path d="M628.024,518.246a8.492,8.492,0,0,1-.153,2.192c-.2.2,2.447,6.219,5.353,3.568s.663-3.721.663-3.721a14.715,14.715,0,0,1-1.02-2.192c.051-.2-4.741,0-4.741,0Z" transform="translate(-619.788 -510.359)" fill="#ffb8b8"/><path d="M628.024,518.246a8.492,8.492,0,0,1-.153,2.192c-.2.2,2.447,6.219,5.353,3.568s.663-3.721.663-3.721a14.715,14.715,0,0,1-1.02-2.192c.051-.2-4.741,0-4.741,0Z" transform="translate(-619.788 -510.359)" opacity="0.1"/><path d="M630.844,547.33s1.937,1.325,2.753,1.02a6.758,6.758,0,0,0,1.937-1.733c.1-.1,5.3,10.349,5.3,10.349s-.765,3.823-2.8,4.945-2.014,2.014-2.269,2.778-3.543-2.421-3.543-2.421l-2.09-8.87v-5.4Z" transform="translate(-621.793 -535.619)" fill="#297aff"/><path d="M591.934,532.387a1.651,1.651,0,0,0-1.3.433c-.663.561-3.773,2.651-3.62,2.855a29.394,29.394,0,0,1,1.835,4.282c.306,1.172.765,1.325.765,1.325s1.071.765.918,1.326-.816,8.207.1,9.89a4.246,4.246,0,0,1,.51,3.568c-.255.408,2.447-1.172,2.447-1.172s4.027-3.262,4.333-4.231a11.4,11.4,0,0,0,.408-2.039s-2.6-10.3-3.415-10.858S591.934,532.387,591.934,532.387Z" transform="translate(-583.724 -523.047)" fill="#575a89"/><path d="M670.314,528.232s1.256-.779,1.511-.576,2.651.2,2.7.408.153,5.1,1.886,6.372.612,3.823.612,3.823L678.3,540.3s-6.933,6.678-6.474,4.384c.025-.128,0-.153,0-.153s-2.7-11.572-2.345-12.184A10.968,10.968,0,0,0,670.314,528.232Z" transform="translate(-656.503 -518.851)" fill="#575a89"/><path d="M671.175,572.728l-6.933,2.4s-6.882,1.631-5.811,3.518,5.607-1.325,5.607-1.325l9.232-1.035S676.935,573.187,671.175,572.728Z" transform="translate(-646.677 -558.673)" fill="#ffb8b8"/><circle cx="3.772" cy="3.772" r="3.772" transform="translate(7.216 2.228)" fill="#ffb8b8"/><path d="M616.924,455.016l-.7-.254a4.962,4.962,0,0,1,3.489-1.332l-.571-.571a2.59,2.59,0,0,1,2.664.825,11.337,11.337,0,0,1,1.92,2.451h.747l-.312.624,1.092.624-1.121-.112a3.148,3.148,0,0,1-.106,1.616l-.254.7a20.125,20.125,0,0,1-1.015-2.284v.634s-.7-.571-.7-.952l-.381.444-.19-.7-2.347.7.381-.571-1.459.19.571-.7s-1.649.825-1.713,1.522a3.649,3.649,0,0,1-.888,1.586l-.381-.634S615.084,455.967,616.924,455.016Z" transform="translate(-608.939 -452.764)" fill="#2f2e41"/></g></svg>