<?xml version="1.0"?>
<svg xmlns="http://www.w3.org/2000/svg" width="215.129" height="45.951" viewBox="0 0 215.129 45.951">
  <g id="logo" transform="translate(-128 -587.163)">
    <g id="logo_&#x5B57;" transform="translate(220.609 590.676)">
      <path id="&#x8DEF;&#x5F84;_5" d="M132.922,56.31h1.207q2.1,3,2.22,3.151c.156.25.273.426.35.527q.04-.076.352-.527.156-.188,2.22-3.151h1.248l-3.352,4.464v3.153h-1.051V60.774Zm-6.142,7.617-2.65-6.792h-.077v6.792H123.04V56.273h1.752l2.455,6.566h.039l2.378-6.566h1.791v7.655H130.4V57.1h-.039q-.234.675-2.572,6.829Zm-5.089,0h-6.038V56.273l5.882.037v.863h-4.793v2.44h4.521v.826h-4.521v2.7h4.949Zm-11.6-6.754h-1.6v5.966h1.6q2.923,0,2.921-3A2.688,2.688,0,0,0,110.095,57.173Zm.038,6.754h-2.688V56.31h2.688q3.9.076,3.974,3.79Q114.223,64.039,110.133,63.927Zm-7.506-6.717-1.519,3.753h3.04Zm.585-.938,3.273,7.655h-1.169l-.9-2.139H100.8l-.857,2.139H98.771l3.235-7.655Zm-5.128,2.176-1.053.262a2.327,2.327,0,0,0-2.259-1.649q-2.417.185-2.572,3.076.116,2.928,2.532,3.114a2.245,2.245,0,0,0,2.378-2.027l1.09.3a3.178,3.178,0,0,1-3.427,2.514q-3.547-.188-3.7-3.865.2-3.791,3.741-3.979A3.3,3.3,0,0,1,98.086,58.449ZM86.567,57.21l-1.521,3.753h3.04Zm.583-.938,3.273,7.655H89.255l-.9-2.139H84.736l-.859,2.139H82.708l3.235-7.655ZM70.393,59.8v2.815q-.855,1.426-3.466,1.425-3.781-.188-3.936-3.9.194-3.752,3.818-3.941,2.727.039,3.545,2.1l-1.051.338a2.413,2.413,0,0,0-2.532-1.575q-2.5.185-2.649,3.114.153,2.889,2.805,3.076a3.157,3.157,0,0,0,2.494-.975V60.662h-2.65V59.8ZM54.823,56.31h1.363l4.171,6.528H60.4V56.31h1.013v7.617H60.122l-4.248-6.493v6.493H54.823ZM51.8,63.927V56.31h1.053v7.617Zm-5.634-6.754h-1.6v5.966h1.6q2.923,0,2.923-3A2.689,2.689,0,0,0,46.164,57.173Zm.039,6.754H43.515V56.31H46.2q3.9.076,3.974,3.79Q50.3,64.039,46.2,63.927ZM35.075,56.31h1.363l4.169,6.528h.04V56.31h1.013v7.617H40.374l-4.248-6.493v6.493H35.075Zm-8.441,4.427V56.31h1.053v4.427q0,2.477,2.22,2.477,2.221.039,2.222-2.514V56.31h1.09V60.7q.04,3.379-3.35,3.34Q26.634,64.079,26.634,60.737ZM18,56.31h1.207q2.106,3,2.222,3.151c.156.25.271.426.35.527.025-.05.142-.226.35-.527q.156-.188,2.22-3.151H25.6l-3.35,4.464v3.153H21.194V60.774Z" transform="translate(-18 -26.136)" fill="#060000" fill-rule="evenodd"/>
      <path id="&#x8DEF;&#x5F84;_6" d="M124.007,50.681V46.774h15.537v3.907Zm3.961-6.63v1.657h-4.51V40.262h5.85l-.427-1.184h4.875l.426,1.184h5.79v5.446h-4.51V44.051ZM140.52,58.673,139.3,64.68h-7.739v-8.2h-1.219l-3.535,8.435h-4.752l3.595-8.435h-2.314V52.457h16.634v4.025h-4.144v4.262h.67l.487-2.071Zm-28.761,6.244V39.551h11.578l-2.316,9h1.1V62.964h-5.241v-4h.976V50.561h-1.463l1.829-6.985h-2.2V64.917Zm-2.9-19.445h-4.388l-1.34-5.8h4.386ZM92.348,41.565h11.089l-.426,8.76H107.4l-.974,13.706h-9.14V60.094h4.875l.364-5.743H92.348V64.917h-4.51V54.35H80.4V50.325h7.434V45.59H81.746V41.565h6.092V39.078h4.51Zm0,4.025v4.735H98.44l.245-4.735ZM77.14,65.333l-9.019-3.878-9.017,3.7V60.212l6.824-2.368V50.561h4.388v7.223l6.824,2.9Zm-27.419-.416V61.1h2.193V43.813H48.989V39.787h9.383v4.025H56.423v21.1Zm9.628-19.684h6.214l.245-1.421H59.165V39.787h18.1v4.025H70.316l-.245,1.421H76.9V58.257H72.509v-9H63.735v9H59.348ZM36.585,55.95H41.52l4.327,8.79H18l6.7-11.751H18.487V48.963H45.906v4.025H29.882L25.434,60.8H38.9ZM19.34,43.813V39.787H44.687v4.025Z" transform="translate(-18 -39.078)" fill="#060000" fill-rule="evenodd"/>
    </g>
    <g id="logo-2" transform="translate(128 587.163)">
      <path id="SVGID" d="M78.049,48.031c0,6.409-4.485,12.595-10.306,13.877a1.865,1.865,0,0,1-.4.043H22.65a1.927,1.927,0,0,1,0-3.852H67.135c3.938-.982,7.15-5.483,7.15-10.068a9.354,9.354,0,0,0-7.957-9.341A1.927,1.927,0,0,1,64.8,36.141a12.485,12.485,0,0,0,.676-4.066,11.894,11.894,0,0,0-23.345-3.531,1.888,1.888,0,0,1-1.8,1.371H27.59a1.927,1.927,0,0,1,0-3.852H39A15.7,15.7,0,0,1,53.554,16a15.886,15.886,0,0,1,15.69,16.075,16.5,16.5,0,0,1-.325,3.267A13.254,13.254,0,0,1,78.049,48.031Z" transform="translate(-7.591 -16)" fill="#060000"/>
      <path id="SVGID-2" d="M16.981,44.589a1.926,1.926,0,0,1,0-3.852H48.892a1.926,1.926,0,0,1,0,3.852Zm-12.327,0a1.926,1.926,0,0,1,0-3.852h8.015a1.926,1.926,0,0,1,0,3.852Z" transform="translate(-2.771 -22.3)" fill="#060000"/>
      <path id="SVGID-3" d="M42.3,54.74a1.927,1.927,0,0,1,0-3.852h3.1a1.927,1.927,0,0,1,0,3.852Zm-30.113,0a1.927,1.927,0,0,1,0-3.852H38a1.927,1.927,0,0,1,0,3.852Z" transform="translate(-4.787 -24.886)" fill="#060000"/>
      <path id="SVGID-4" d="M7.04,64.616a1.927,1.927,0,0,1,0-3.852H47.663a1.927,1.927,0,0,1,0,3.852Z" transform="translate(-3.41 -27.401)" fill="#060000"/>
    </g>
  </g>
</svg>
